<svg width="256" height="256" viewBox="0 0 256 256" xmlns="http://www.w3.org/2000/svg">
    <!-- Fondo del icono con gradiente -->
    <defs>
        <linearGradient id="backgroundGradient" x1="0%" y1="0%" x2="100%" y2="100%">
            <stop offset="0%" style="stop-color:#555BF6;stop-opacity:1" />
            <stop offset="100%" style="stop-color:#02145C;stop-opacity:1" />
        </linearGradient>
        
        <linearGradient id="euroGradient" x1="0%" y1="0%" x2="100%" y2="100%">
            <stop offset="0%" style="stop-color:#FCFFA8;stop-opacity:1" />
            <stop offset="100%" style="stop-color:#B7F1F4;stop-opacity:1" />
        </linearGradient>
        
        <linearGradient id="scissorsGradient" x1="0%" y1="0%" x2="100%" y2="100%">
            <stop offset="0%" style="stop-color:#FD778B;stop-opacity:1" />
            <stop offset="100%" style="stop-color:#FCFFA8;stop-opacity:1" />
        </linearGradient>
    </defs>
    
    <!-- Fondo redondeado -->
    <rect width="256" height="256" rx="56" ry="56" fill="url(#backgroundGradient)"/>
    
    <!-- Elemento decorativo - Círculos de fondo -->
    <circle cx="200" cy="60" r="40" fill="rgba(253,119,139,0.15)"/>
    <circle cx="60" cy="200" r="35" fill="rgba(183,241,244,0.2)"/>
    
    <!-- Símbolo principal - Euro estilizado -->
    <g transform="translate(128,128)">
        <!-- Círculo base del euro -->
        <circle cx="0" cy="0" r="65" fill="none" stroke="url(#euroGradient)" stroke-width="12" opacity="0.9"/>
        
        <!-- Líneas horizontales del euro -->
        <rect x="-45" y="-15" width="60" height="8" rx="4" fill="url(#euroGradient)"/>
        <rect x="-45" y="7" width="50" height="8" rx="4" fill="url(#euroGradient)"/>
        
        <!-- Tijeras pequeñas (elemento barbería) -->
        <g transform="translate(35,35) scale(0.7)">
            <!-- Hoja superior -->
            <ellipse cx="-8" cy="-12" rx="3" ry="8" fill="url(#scissorsGradient)" transform="rotate(-20)"/>
            <!-- Hoja inferior -->
            <ellipse cx="-8" cy="12" rx="3" ry="8" fill="url(#scissorsGradient)" transform="rotate(20)"/>
            <!-- Pivot central -->
            <circle cx="0" cy="0" r="2.5" fill="#D2E9FF"/>
        </g>
        
        <!-- Elemento gráfico - Barras de crecimiento -->
        <g transform="translate(-45,-45) scale(0.8)">
            <rect x="5" y="20" width="6" height="15" rx="3" fill="rgba(210,233,255,0.8)"/>
            <rect x="15" y="12" width="6" height="23" rx="3" fill="rgba(210,233,255,0.9)"/>
            <rect x="25" y="5" width="6" height="30" rx="3" fill="#D2E9FF"/>
        </g>
    </g>
    
    <!-- Elementos decorativos adicionales -->
    <g opacity="0.6">
        <!-- Pequeños círculos decorativos -->
        <circle cx="45" cy="80" r="3" fill="#FCFFA8"/>
        <circle cx="210" cy="180" r="4" fill="#B7F1F4"/>
        <circle cx="80" cy="45" r="2.5" fill="#D2E9FF"/>
        
        <!-- Líneas sutiles -->
        <rect x="30" y="120" width="25" height="2" rx="1" fill="rgba(252,255,168,0.5)"/>
        <rect x="200" y="140" width="20" height="2" rx="1" fill="rgba(183,241,244,0.5)"/>
    </g>
</svg>